<?xml version="1.0" encoding="iso-8859-1"?>
<!-- Uploaded to: SVG Repo, www.svgrepo.com, Generator: SVG Repo Mixer Tools -->
<svg fill="#000000" height="800px" width="800px" version="1.1" id="Layer_1" xmlns="http://www.w3.org/2000/svg" xmlns:xlink="http://www.w3.org/1999/xlink" 
	 viewBox="0 0 512 512" xml:space="preserve">
<g>
	<g>
		<path d="M500.036,360.218l-9.486-9.504l-0.001-0.001l-0.001-0.001L389.182,249.231V61.886V50.915
			c0-24.622-20.018-44.654-44.623-44.654H44.615C20.015,6.261,0,26.293,0,50.915v10.971v388.228v10.964
			c0,24.626,20.015,44.66,44.615,44.66h299.943c24.605,0,44.623-20.034,44.623-44.66v-10.964v-84.981l43.47,43.518l9.468,9.481
			c7.727,7.749,18.013,12.017,28.96,12.017c10.955,0,21.241-4.269,28.954-12.011C515.99,402.162,515.987,376.178,500.036,360.218z
			 M20.899,50.915c0-13.099,10.639-23.755,23.717-23.755h299.943c13.082,0,23.724,10.656,23.724,23.755v0.521H20.899V50.915z
			 M368.282,461.078c0,13.102-10.643,23.762-23.724,23.762H44.615c-13.077,0-23.717-10.659-23.717-23.762v-0.515h347.383V461.078z
			 M368.282,439.665H20.899V72.335h347.383v155.962l-73.475-73.554c-0.001-0.001-0.002-0.002-0.003-0.003
			c-0.001-0.001-0.002-0.003-0.004-0.004c-0.305-0.305-0.628-0.579-0.959-0.838c-0.087-0.068-0.176-0.13-0.264-0.194
			c-0.274-0.201-0.555-0.387-0.843-0.558c-0.084-0.049-0.165-0.1-0.25-0.147c-0.755-0.42-1.552-0.739-2.37-0.956
			c-0.043-0.012-0.083-0.03-0.126-0.041l-57.776-14.675c-3.57-0.907-7.354,0.133-9.959,2.737c-2.605,2.604-3.648,6.387-2.743,9.957
			l14.654,57.842c0.011,0.045,0.031,0.088,0.044,0.133c0.217,0.817,0.534,1.611,0.953,2.366c0.047,0.085,0.098,0.165,0.147,0.249
			c0.17,0.287,0.354,0.566,0.555,0.84c0.066,0.091,0.131,0.182,0.199,0.271c0.253,0.323,0.521,0.638,0.818,0.936
			c0.007,0.007,0.014,0.017,0.022,0.024l131.382,131.53V439.665z M267.043,167.736l-17.14,17.158l-5.826-22.992L267.043,167.736z
			 M440.038,386.475l-180.976-181.18l28.352-28.381l50.081,50.134l33.556,33.591c0.094,0.102,0.19,0.202,0.288,0.301l97.046,97.157
			L440.038,386.475z M485.237,403.378c-3.772,3.787-8.8,5.871-14.158,5.871c-5.355,0-10.385-2.087-14.168-5.881l-2.104-2.108
			l28.344-28.376l2.098,2.101C493.067,382.808,493.066,395.54,485.237,403.378z"/>
	</g>
</g>
<g>
	<g>
		<path d="M58.364,141.544c-5.771,0-10.449,4.678-10.449,10.449v201.185c0,5.771,4.678,10.449,10.449,10.449
			s10.449-4.678,10.449-10.449V151.994C68.813,146.223,64.135,141.544,58.364,141.544z"/>
	</g>
</g>
<g>
	<g>
		<path d="M58.364,86.339c-5.771,0-10.449,4.678-10.449,10.449v23.715c0,5.771,4.678,10.449,10.449,10.449
			s10.449-4.678,10.449-10.449V96.788C68.813,91.017,64.135,86.339,58.364,86.339z"/>
	</g>
</g>
</svg>